<?xml version="1.0" standalone="no"?>
<!DOCTYPE svg PUBLIC "-//W3C//DTD SVG 20010904//EN"
 "http://www.w3.org/TR/2001/REC-SVG-20010904/DTD/svg10.dtd">
<svg version="1.0" xmlns="http://www.w3.org/2000/svg"
 width="50.000000px" height="50.000000px" viewBox="0 0 500.000000 500.000000"
 preserveAspectRatio="xMidYMid meet">

<g transform="translate(0.000000,650.000000) scale(0.100000,-0.100000)"
fill="#ff3678" stroke="none">
<path d="M1938 3239 c-157 -37 -288 -176 -333 -354 -20 -78 -19 -126 4 -217
49 -192 203 -413 480 -688 141 -140 391 -360 409 -360 17 0 286 234 411 359
210 208 348 383 428 546 51 103 67 163 67 255 1 358 -358 580 -667 412 -71
-38 -166 -144 -202 -224 -16 -37 -32 -67 -35 -68 -3 0 -20 32 -38 70 -37 79
-124 178 -189 217 -96 56 -230 77 -335 52z"/>
</g>
</svg>
