<?xml version="1.0" standalone="no"?>
<!DOCTYPE svg PUBLIC "-//W3C//DTD SVG 20010904//EN"
 "http://www.w3.org/TR/2001/REC-SVG-20010904/DTD/svg10.dtd">
<svg version="1.0" xmlns="http://www.w3.org/2000/svg"
 width="50.000000px" height="50.000000px" viewBox="0 0 250.000000 250.000000"
 preserveAspectRatio="xMidYMid meet">

<g transform="translate(0.000000,345.000000) scale(0.100000,-0.100000)"
fill="#2584ff" stroke="none">
<path d="M1103 1848 c-152 -195 -253 -370 -272 -473 -26 -142 61 -300 205
-371 53 -26 69 -29 154 -29 85 0 101 3 154 29 143 70 231 230 205 372 -12 65
-76 194 -153 308 -73 108 -195 266 -206 266 -4 0 -43 -46 -87 -102z m159 -65
c164 -220 238 -362 238 -457 0 -113 -77 -230 -182 -277 -77 -34 -193 -33 -263
3 -149 78 -212 237 -152 386 14 34 47 97 72 139 53 88 203 293 214 293 4 0 37
-39 73 -87z"/>
<path d="M1118 1663 c-185 -262 -210 -371 -108 -487 54 -61 162 -103 195 -76
24 20 5 38 -51 50 -31 7 -68 23 -86 38 -36 30 -67 94 -68 137 0 43 55 152 142
281 41 60 72 116 70 122 -10 30 -42 7 -94 -65z"/>
</g>
</svg>
