<?xml version="1.0" standalone="no"?>
<!DOCTYPE svg PUBLIC "-//W3C//DTD SVG 20010904//EN"
 "http://www.w3.org/TR/2001/REC-SVG-20010904/DTD/svg10.dtd">
<svg version="1.0" xmlns="http://www.w3.org/2000/svg"
 width="500.000000pt" height="500.000000pt" viewBox="0 0 500.000000 500.000000"
 preserveAspectRatio="xMidYMid meet">

<g transform="translate(0.000000,300.000000) scale(0.100000,-0.100000)"
fill="#2584ff" stroke="none">
<path d="M2901 4016 c-43 -46 1 -106 78 -106 62 0 75 75 19 114 -33 23 -71 20
-97 -8z"/>
<path d="M1967 3936 c-60 -55 -48 -111 40 -191 130 -117 190 -181 241 -257 58
-86 80 -107 59 -56 -7 18 -52 131 -98 252 -94 246 -114 276 -177 276 -27 0
-47 -7 -65 -24z"/>
<path d="M2559 3813 c-19 -23 -15 -118 10 -231 48 -210 47 -276 -3 -300 -37
-19 -80 -9 -149 32 l-56 34 26 -39 c33 -50 42 -120 19 -154 -13 -19 -25 -25
-55 -25 -43 0 -89 27 -183 110 l-61 54 68 -89 c104 -137 142 -240 100 -275
-22 -18 -100 -8 -219 29 -113 36 -161 39 -174 14 -25 -48 18 -79 183 -133 157
-51 195 -76 195 -125 0 -28 -83 -55 -228 -75 -253 -35 -312 -52 -312 -89 0
-35 28 -46 114 -44 45 1 134 8 199 17 152 21 236 21 265 0 53 -37 7 -116 -126
-217 -29 -22 -51 -42 -48 -44 2 -2 26 7 53 20 73 37 150 59 208 61 102 2 111
-44 32 -161 -30 -43 -75 -109 -100 -146 -47 -69 -57 -103 -35 -125 33 -33 79
3 182 142 45 61 97 123 115 139 61 51 110 25 119 -64 4 -46 -11 -205 -25 -254
-3 -11 -2 -17 1 -13 4 3 22 49 40 101 56 163 110 232 178 225 27 -2 36 -10 51
-41 16 -35 19 -37 55 -31 55 9 88 -24 172 -166 82 -139 114 -171 164 -163 46
7 68 -9 146 -114 76 -101 108 -128 140 -118 52 16 5 131 -175 435 -98 165
-167 300 -179 353 -5 21 -1 33 18 52 30 30 86 33 162 10 69 -21 71 -19 22 18
-95 72 -116 155 -48 190 31 15 64 17 261 16 224 -1 261 3 281 34 11 18 -10 44
-44 56 -18 7 -118 16 -223 21 -253 12 -311 32 -275 97 22 39 66 66 151 92 41
13 78 27 82 31 5 4 -45 7 -110 6 -118 -1 -142 4 -177 40 -9 8 -16 30 -16 48 0
27 13 45 80 113 63 64 80 87 80 110 0 16 -5 34 -12 41 -24 24 -57 11 -133 -53
-75 -64 -111 -83 -140 -71 -49 19 -21 79 105 226 162 188 196 254 150 295 -39
36 -90 -5 -224 -180 -84 -109 -161 -191 -199 -211 -62 -33 -112 31 -123 156
-7 68 -8 72 -16 40 -28 -119 -56 -164 -109 -175 -58 -13 -79 27 -124 240 -34
157 -52 212 -78 230 -27 19 -31 19 -48 -2z"/>
<path d="M2917 3746 c-7 -19 29 -47 50 -39 8 3 13 15 11 27 -4 26 -52 35 -61
12z"/>
<path d="M1320 3588 c-118 -80 -100 -196 38 -248 78 -30 136 -23 174 19 55 61
30 152 -57 213 -58 40 -111 46 -155 16z"/>
<path d="M3590 3425 c-14 -17 -7 -43 15 -51 19 -8 45 13 45 36 0 16 -18 30
-40 30 -4 0 -13 -7 -20 -15z"/>
<path d="M1710 3241 c-5 -11 -10 -27 -10 -35 0 -23 44 -48 77 -44 23 2 29 8
31 35 2 23 -3 35 -20 47 -31 22 -65 20 -78 -3z"/>
<path d="M3888 3038 c-71 -28 -126 -53 -124 -55 2 -2 23 1 47 6 65 15 174 13
215 -4 63 -26 100 22 57 73 -32 37 -61 34 -195 -20z"/>
<path d="M3745 2176 c119 -116 200 -188 217 -191 52 -12 111 36 124 102 5 24
0 37 -23 62 -26 29 -35 33 -117 41 -72 7 -105 17 -173 49 -46 22 -102 53 -126
69 -101 69 -81 42 98 -132z"/>
<path d="M1826 2105 c-99 -46 -191 -92 -205 -102 -55 -42 -14 -146 58 -146 40
0 59 17 86 78 28 64 71 113 160 183 78 62 91 72 85 71 -3 0 -86 -38 -184 -84z"/>
<path d="M2846 1979 c-33 -39 -33 -49 2 -81 51 -49 123 -49 140 -1 12 35 1 64
-34 92 -39 31 -77 27 -108 -10z"/>
<path d="M2532 1556 c-56 -111 -102 -213 -102 -227 0 -76 94 -59 133 24 14 29
82 395 75 403 -2 1 -49 -88 -106 -200z"/>
</g>
</svg>
