<?xml version="1.0" standalone="no"?>
<!DOCTYPE svg PUBLIC "-//W3C//DTD SVG 20010904//EN"
 "http://www.w3.org/TR/2001/REC-SVG-20010904/DTD/svg10.dtd">
<svg version="1.0" xmlns="http://www.w3.org/2000/svg"
 width="100px" height="100px" viewBox="0 0 250.000000 250.000000"
 preserveAspectRatio="xMidYMid meet">

<g transform="translate(0.000000,150.000000) scale(0.150000,-0.100000)"
fill="#000000" stroke="none">
<path d="M1127 1523 c-4 -3 -7 -114 -7 -245 0 -205 2 -238 15 -238 13 0 15 34
15 245 0 224 -3 258 -23 238z"/>
<path d="M1308 1462 c-19 -4 -22 -11 -10 -28 4 -6 14 -9 23 -5 22 8 9 38 -13
33z"/>
<path d="M1167 1453 c-4 -3 -6 -85 -5 -182 1 -97 3 -153 5 -126 3 32 10 55 21
63 25 19 25 132 -1 151 -16 11 -18 22 -14 57 5 46 4 48 -6 37z"/>
<path d="M1215 1303 c-3 -14 -3 -33 0 -44 5 -16 10 -17 28 -8 15 8 62 10 153
6 140 -7 163 -1 148 38 -7 16 -19 17 -138 12 -102 -5 -137 -4 -158 7 -25 13
-27 12 -33 -11z m305 -23 c0 -5 -2 -10 -4 -10 -3 0 -8 5 -11 10 -3 6 -1 10 4
10 6 0 11 -4 11 -10z"/>
<path d="M1322 1112 c-16 -3 -22 -8 -18 -19 3 -8 6 -19 6 -24 0 -6 10 -7 23
-3 29 9 29 8 20 30 -5 13 -16 18 -31 16z"/>
</g>
</svg>
