<?xml version="1.0" standalone="no"?>
<!DOCTYPE svg PUBLIC "-//W3C//DTD SVG 20010904//EN"
 "http://www.w3.org/TR/2001/REC-SVG-20010904/DTD/svg10.dtd">
<svg version="1.0" xmlns="http://www.w3.org/2000/svg"
 width="40.000000px" height="40.000000px" viewBox="0 0 1250.000000 1250.000000"
 preserveAspectRatio="xMidYMid meet">

<g transform="translate(-315.000000,915.000000) scale(0.100000,-0.100000)"
fill="#fff" stroke="none">
<path d="M3363 8995 c-206 -45 -374 -215 -418 -422 -18 -86 -18 -130 0 -218
42 -198 186 -357 376 -413 l74 -22 2875 2 2875 3 60 23 c203 76 342 258 361
475 23 264 -168 516 -434 572 -98 21 -5674 21 -5769 0z"/>
<path d="M3400 6789 c-121 -17 -254 -89 -330 -177 -62 -72 -118 -193 -131
-284 -39 -269 127 -522 396 -605 58 -17 172 -18 2915 -18 2743 0 2857 1 2915
18 269 83 437 339 397 605 -32 209 -179 377 -392 449 -53 17 -163 18 -2885 19
-1556 1 -2855 -2 -2885 -7z"/>
<path d="M3340 4566 c-206 -58 -351 -213 -395 -423 -18 -86 -18 -130 0 -216
39 -187 173 -338 359 -406 l71 -26 2875 0 2875 0 71 26 c336 123 470 496 290
804 -41 69 -134 156 -207 193 -132 67 113 62 -3034 61 -2276 -1 -2869 -3
-2905 -13z"/>
</g>
</svg>
