<svg width="0" height="0" class="hidden">
  <symbol xmlns="http://www.w3.org/2000/svg" xmlns:xlink="http://www.w3.org/1999/xlink" zoomAndPan="magnify" preserveAspectRatio="xMidYMid meet" version="1.0" viewBox="0 0 375 374.999991" id="Entraide">
    <defs>
      <clipPath id="id1">
        <path d="M 158 96 L 222 96 L 222 281.277344 L 158 281.277344 Z M 158 96 " clip-rule="nonzero"></path>
      </clipPath>
      <clipPath id="id2">
        <path d="M 114 149 L 147 149 L 147 281.277344 L 114 281.277344 Z M 114 149 " clip-rule="nonzero"></path>
      </clipPath>
      <clipPath id="id3">
        <path d="M 228 149 L 261 149 L 261 281.277344 L 228 281.277344 Z M 228 149 " clip-rule="nonzero"></path>
      </clipPath>
    </defs>
    <path fill="rgb(100%, 87.059021%, 34.899902%)" d="M 185.785156 111.519531 C 184.507812 111.535156 183.269531 111.695312 182.082031 111.988281 C 175.066406 120.023438 171.460938 127.570312 171.363281 134.484375 C 173.949219 139.941406 179.511719 143.71875 185.964844 143.71875 C 194.21875 143.71875 201.019531 137.535156 201.980469 129.558594 L 186.671875 112.730469 C 186.332031 112.355469 186.035156 111.949219 185.785156 111.519531 Z M 185.785156 111.519531 " fill-opacity="1" fill-rule="nonzero"></path>
    <g clip-path="url(#id1)">
      <path fill="rgb(100%, 87.059021%, 34.899902%)" d="M 187.164062 102.625 C 187.167969 102.617188 187.175781 102.613281 187.179688 102.609375 C 187.292969 101.027344 186.753906 99.402344 185.550781 98.183594 C 184.273438 96.886719 182.53125 96.332031 180.851562 96.511719 C 182.265625 98.789062 182.347656 101.765625 180.800781 104.164062 L 158.671875 138.464844 C 159.335938 144.03125 161.375 148.511719 163.40625 151.683594 C 164.53125 153.445312 165.648438 154.828125 166.566406 155.839844 L 166.566406 272.40625 C 166.566406 277.296875 170.539062 281.253906 175.433594 281.253906 C 180.332031 281.253906 184.300781 277.296875 184.300781 272.40625 L 184.300781 207.804688 L 187.628906 207.804688 L 187.628906 272.40625 C 187.628906 277.296875 191.597656 281.253906 196.496094 281.253906 C 201.390625 281.253906 205.363281 277.296875 205.363281 272.40625 L 205.363281 165.019531 C 205.789062 165.890625 206.214844 166.886719 206.636719 168.050781 C 208.660156 173.640625 210.359375 182.816406 210.351562 197.136719 C 210.355469 201.082031 210.226562 205.417969 209.949219 210.179688 C 209.765625 213.335938 212.179688 216.042969 215.34375 216.226562 C 215.457031 216.234375 215.570312 216.238281 215.679688 216.238281 C 218.699219 216.238281 221.230469 213.886719 221.40625 210.84375 C 221.691406 205.882812 221.828125 201.328125 221.828125 197.136719 C 221.800781 175.535156 218.34375 163.582031 213.628906 156.394531 C 211.273438 152.824219 208.515625 150.535156 205.96875 149.269531 C 203.421875 147.988281 201.1875 147.734375 199.917969 147.738281 C 199.460938 147.738281 199.113281 147.769531 198.886719 147.796875 L 174.761719 147.796875 C 174.179688 147.125 173.476562 146.207031 172.789062 145.058594 C 171.304688 142.5625 169.925781 139.132812 169.921875 134.699219 C 169.941406 128.277344 172.777344 119.042969 184.886719 106.882812 C 185.125 105.242188 185.917969 103.753906 187.164062 102.625 Z M 187.164062 102.625 " fill-opacity="1" fill-rule="nonzero"></path>
    </g>
    <path fill="rgb(100%, 87.059021%, 34.899902%)" d="M 147.652344 113.523438 C 138.972656 111.507812 130.296875 116.894531 128.277344 125.550781 C 126.449219 133.390625 130.695312 141.222656 137.953125 144.132812 L 155.113281 117.542969 C 153.097656 115.625 150.558594 114.199219 147.652344 113.523438 Z M 147.652344 113.523438 " fill-opacity="1" fill-rule="nonzero"></path>
    <g clip-path="url(#id2)">
      <path fill="rgb(100%, 87.059021%, 34.899902%)" d="M 136.75 166.367188 C 135.375 166.367188 134.035156 165.972656 132.875 165.230469 C 129.546875 163.09375 128.585938 158.65625 130.726562 155.335938 L 134.441406 149.578125 C 128.941406 150.015625 122.730469 153.816406 119.859375 162.15625 C 114.972656 176.59375 113.929688 185.992188 115.78125 201.890625 C 117.210938 209.21875 120.933594 212.363281 125.144531 213.660156 C 126.800781 220.210938 128.804688 230.738281 128.792969 243.242188 C 128.792969 251.53125 127.921875 260.679688 125.546875 270.160156 C 124.347656 274.953125 127.269531 279.808594 132.070312 281.007812 C 132.800781 281.191406 133.53125 281.277344 134.25 281.277344 C 138.269531 281.277344 141.925781 278.5625 142.945312 274.5 C 145.726562 263.386719 146.722656 252.773438 146.722656 243.242188 C 146.707031 223.746094 142.597656 208.75 140.695312 202.820312 C 139.433594 190.769531 143.320312 176.757812 145.222656 167.054688 C 146.007812 164.335938 146.101562 161.417969 145.578125 158.757812 L 142.785156 163.085938 C 141.457031 165.140625 139.203125 166.367188 136.75 166.367188 Z M 136.75 166.367188 " fill-opacity="1" fill-rule="nonzero"></path>
    </g>
    <path fill="rgb(100%, 87.059021%, 34.899902%)" d="M 179.59375 103.390625 C 181.308594 100.730469 180.539062 97.1875 177.875 95.476562 C 175.210938 93.765625 171.660156 94.535156 169.945312 97.191406 L 131.929688 156.113281 C 130.214844 158.769531 130.984375 162.316406 133.648438 164.027344 C 134.609375 164.644531 135.6875 164.9375 136.75 164.9375 C 138.636719 164.9375 140.480469 164.011719 141.578125 162.308594 Z M 179.59375 103.390625 " fill-opacity="1" fill-rule="nonzero"></path>
    <path fill="rgb(100%, 87.059021%, 34.899902%)" d="M 247.125 125.550781 C 245.105469 116.894531 236.429688 111.507812 227.75 113.523438 C 222.175781 114.820312 217.957031 118.859375 216.1875 123.878906 L 235.253906 144.835938 C 243.824219 142.738281 249.132812 134.148438 247.125 125.550781 Z M 247.125 125.550781 " fill-opacity="1" fill-rule="nonzero"></path>
    <g clip-path="url(#id3)">
      <path fill="rgb(100%, 87.059021%, 34.899902%)" d="M 249.855469 270.160156 C 247.480469 260.679688 246.609375 251.53125 246.609375 243.242188 C 246.609375 232.402344 248.101562 223.042969 249.582031 216.476562 C 249.808594 215.46875 250.035156 214.53125 250.257812 213.660156 C 254.46875 212.363281 258.191406 209.21875 259.621094 201.890625 C 261.476562 185.992188 260.429688 176.59375 255.546875 162.15625 C 252.421875 153.085938 245.347656 149.382812 239.535156 149.539062 L 243.957031 154.402344 C 245.246094 155.816406 245.902344 157.648438 245.808594 159.554688 C 245.71875 161.464844 244.886719 163.226562 243.464844 164.511719 C 242.144531 165.707031 240.433594 166.371094 238.648438 166.371094 C 236.628906 166.371094 234.691406 165.511719 233.335938 164.023438 L 229.636719 159.957031 C 229.347656 162.277344 229.511719 164.738281 230.179688 167.054688 C 232.085938 176.753906 235.972656 190.765625 234.710938 202.816406 C 232.808594 208.742188 228.695312 223.738281 228.679688 243.242188 C 228.679688 252.773438 229.675781 263.386719 232.460938 274.5 C 233.476562 278.5625 237.136719 281.277344 241.152344 281.277344 C 241.871094 281.277344 242.601562 281.191406 243.332031 281.007812 C 248.136719 279.808594 251.054688 274.953125 249.855469 270.160156 Z M 249.855469 270.160156 " fill-opacity="1" fill-rule="nonzero"></path>
    </g>
    <path fill="rgb(100%, 87.059021%, 34.899902%)" d="M 238.648438 164.9375 C 240.023438 164.9375 241.402344 164.449219 242.503906 163.453125 C 244.847656 161.324219 245.023438 157.707031 242.894531 155.363281 L 196.230469 104.074219 C 194.101562 101.734375 190.472656 101.558594 188.125 103.683594 C 185.78125 105.808594 185.605469 109.429688 187.734375 111.769531 L 234.394531 163.058594 C 235.53125 164.304688 237.085938 164.9375 238.648438 164.9375 Z M 238.648438 164.9375 " fill-opacity="1" fill-rule="nonzero"></path>
  </symbol>
  <symbol xmlns="http://www.w3.org/2000/svg" xmlns:xlink="http://www.w3.org/1999/xlink" zoomAndPan="magnify" preserveAspectRatio="xMidYMid meet" version="1.0" viewBox="0 0 375 374.999991" id="Honesty">
    <defs>
      <clipPath id="id1">
        <path d="M 94 100.613281 L 281 100.613281 L 281 274 L 94 274 Z M 94 100.613281 " clip-rule="nonzero"></path>
      </clipPath>
    </defs>
    <g clip-path="url(#id1)">
      <path fill="rgb(100%, 87.059021%, 34.899902%)" d="M 144.261719 100.613281 C 116.691406 100.613281 94.289062 123.304688 94.289062 150.613281 C 94.289062 160.136719 98.632812 168.304688 102.628906 174.273438 C 106.628906 180.242188 110.710938 184.246094 110.710938 184.246094 L 129.414062 202.972656 L 138.835938 193.542969 L 120.082031 174.769531 L 120.070312 174.753906 C 120.070312 174.753906 116.925781 171.660156 113.707031 166.851562 C 110.484375 162.042969 107.613281 155.757812 107.613281 150.613281 C 107.613281 130.589844 123.992188 113.949219 144.261719 113.949219 C 164.160156 113.949219 182.613281 133.402344 182.613281 133.402344 L 187.574219 138.949219 L 192.53125 133.402344 C 192.53125 133.402344 210.984375 113.949219 230.882812 113.949219 C 251.152344 113.949219 267.53125 130.589844 267.53125 150.613281 L 267.53125 153.949219 L 280.855469 153.949219 L 280.855469 150.613281 C 280.855469 123.304688 258.453125 100.613281 230.882812 100.613281 C 208.015625 100.613281 193.273438 114.347656 187.574219 120.160156 C 181.871094 114.347656 167.128906 100.613281 144.261719 100.613281 Z M 230.285156 147.191406 L 225.574219 151.902344 L 203.332031 174.15625 L 177.371094 174.15625 C 176.472656 174.15625 175.613281 174.328125 174.785156 174.675781 C 173.960938 175.023438 173.234375 175.519531 172.605469 176.160156 L 149.402344 199.820312 C 140.550781 208.679688 139.867188 219.378906 142.324219 226.382812 C 144.777344 233.386719 149.585938 237.710938 149.585938 237.710938 C 149.769531 237.894531 163.871094 252.011719 177.683594 265.824219 C 186.230469 274.371094 196.820312 274.933594 203.800781 272.660156 C 210.78125 270.382812 215.292969 265.902344 215.292969 265.902344 C 215.316406 265.871094 215.34375 265.839844 215.371094 265.808594 L 267.398438 213.753906 L 272.109375 209.039062 L 262.6875 199.613281 L 257.976562 204.324219 L 206.027344 256.304688 C 206.027344 256.304688 203.355469 258.777344 199.675781 259.976562 C 195.996094 261.175781 192.457031 261.734375 187.105469 256.382812 C 173.207031 242.484375 158.824219 228.101562 158.824219 228.101562 C 158.765625 228.039062 158.703125 227.976562 158.640625 227.917969 C 158.640625 227.917969 156.109375 225.433594 154.894531 221.96875 C 153.679688 218.503906 152.996094 215.082031 158.824219 209.246094 C 158.84375 209.230469 158.859375 209.210938 158.875 209.195312 L 180.167969 187.488281 L 190.007812 187.488281 L 182.394531 195.105469 L 177.683594 199.820312 L 187.105469 209.246094 L 191.816406 204.535156 L 234.996094 161.332031 L 239.707031 156.617188 Z M 251.078125 154.664062 L 246.367188 159.378906 L 205.949219 199.820312 L 201.238281 204.535156 L 210.660156 213.960938 L 215.371094 209.246094 L 255.792969 168.804688 L 260.503906 164.089844 Z M 258.550781 175.472656 L 253.839844 180.183594 L 220.082031 213.960938 L 215.371094 218.675781 L 224.792969 228.101562 L 229.503906 223.386719 L 263.261719 189.613281 L 267.972656 184.898438 Z M 258.550781 175.472656 " fill-opacity="1" fill-rule="nonzero"></path>
    </g>
  </symbol>
  <symbol xmlns="http://www.w3.org/2000/svg" xmlns:xlink="http://www.w3.org/1999/xlink" zoomAndPan="magnify" preserveAspectRatio="xMidYMid meet" version="1.0" viewBox="0 0 375 374.999991" id="Générosité">
    <defs>
      <clipPath id="id1">
        <path d="M 94 106.542969 L 280 106.542969 L 280 268.542969 L 94 268.542969 Z M 94 106.542969 " clip-rule="nonzero"></path>
      </clipPath>
    </defs>
    <g clip-path="url(#id1)">
      <path fill="rgb(100%, 87.059021%, 34.899902%)" d="M 206.484375 106.507812 C 206.097656 106.507812 205.714844 106.558594 205.339844 106.628906 C 189.019531 110.9375 172.707031 115.296875 156.386719 119.628906 C 156.316406 119.648438 156.238281 119.65625 156.167969 119.675781 C 153.542969 120.082031 151.230469 122.480469 151.191406 125.121094 C 151.191406 125.160156 151.191406 125.199219 151.191406 125.238281 C 150.964844 128.535156 154.535156 131.722656 157.753906 131.113281 C 168.832031 128.257812 179.898438 125.246094 191.007812 122.324219 C 191.085938 122.304688 191.164062 122.285156 191.242188 122.273438 C 192.777344 120.433594 194.972656 119.222656 197.351562 118.898438 C 198.601562 118.722656 199.910156 118.792969 201.210938 119.144531 L 222.097656 124.824219 L 227.320312 126.25 C 228.402344 126.527344 229.050781 127.648438 228.757812 128.722656 C 228.460938 129.804688 227.339844 130.445312 226.257812 130.128906 L 221.042969 128.710938 L 200.148438 123.023438 C 197.058594 122.1875 194.007812 123.949219 193.191406 127.039062 C 192.375 130.140625 194.175781 133.25 197.265625 134.09375 L 239.046875 145.460938 C 239.3125 145.53125 239.578125 145.582031 239.855469 145.621094 C 240 145.640625 240.148438 145.648438 240.308594 145.667969 C 240.386719 145.667969 240.464844 145.667969 240.542969 145.667969 C 240.640625 145.667969 240.71875 145.667969 240.816406 145.667969 C 240.957031 145.660156 241.09375 145.648438 241.230469 145.628906 C 241.507812 145.601562 241.78125 145.550781 242.058594 145.480469 L 250.6875 143.1875 L 254.21875 142.253906 L 254.121094 111.914062 L 251.601562 112.582031 L 242.972656 114.863281 C 242.71875 114.941406 242.460938 114.992188 242.207031 115.042969 C 242.085938 115.070312 241.96875 115.101562 241.851562 115.109375 C 241.46875 115.167969 241.0625 115.1875 240.671875 115.1875 C 240.59375 115.199219 240.523438 115.199219 240.445312 115.199219 C 240.425781 115.199219 240.40625 115.199219 240.386719 115.199219 C 239.953125 115.1875 239.53125 115.160156 239.105469 115.101562 C 238.988281 115.082031 238.859375 115.0625 238.742188 115.023438 C 238.496094 114.972656 238.242188 114.914062 237.996094 114.855469 L 208.609375 106.894531 C 208.578125 106.894531 208.558594 106.882812 208.527344 106.882812 L 208.519531 106.875 C 208.449219 106.863281 208.390625 106.84375 208.324219 106.824219 C 207.742188 106.617188 207.113281 106.519531 206.484375 106.519531 Z M 258.113281 106.792969 L 258.261719 146.652344 L 267.097656 146.691406 L 267.085938 142.804688 L 267.066406 137.460938 C 267.046875 136.347656 267.933594 135.433594 269.042969 135.414062 C 270.175781 135.394531 271.101562 136.308594 271.089844 137.441406 L 271.101562 142.785156 L 271.121094 146.703125 L 279.957031 146.742188 L 279.816406 106.875 Z M 269.042969 127.421875 C 270.167969 127.414062 271.082031 128.316406 271.082031 129.429688 C 271.082031 130.550781 270.167969 131.457031 269.042969 131.449219 C 267.921875 131.457031 267.019531 130.550781 267.019531 129.429688 C 267.019531 128.316406 267.921875 127.414062 269.042969 127.421875 Z M 146.390625 142.097656 C 145.269531 142.078125 144.355469 142.972656 144.34375 144.09375 C 144.332031 145.214844 145.25 146.121094 146.371094 146.121094 L 152.421875 146.171875 C 151.308594 147.117188 150.238281 148.097656 149.203125 149.125 C 139.425781 158.894531 133.375 172.417969 133.375 187.328125 C 133.375 202.226562 139.425781 215.75 149.203125 225.523438 C 149.980469 226.351562 151.289062 226.371094 152.097656 225.5625 C 152.894531 224.753906 152.875 223.457031 152.046875 222.679688 C 142.996094 213.625 137.40625 201.136719 137.40625 187.328125 C 137.40625 173.511719 142.996094 161.023438 152.046875 151.976562 C 153.40625 150.617188 154.839844 149.339844 156.347656 148.148438 L 156.414062 156.277344 C 156.386719 157.410156 157.300781 158.355469 158.441406 158.34375 C 159.582031 158.335938 160.488281 157.378906 160.4375 156.238281 L 160.339844 144.476562 C 160.46875 143.640625 160.054688 142.816406 159.308594 142.410156 C 158.992188 142.234375 158.640625 142.144531 158.285156 142.15625 C 158.1875 142.15625 158.097656 142.164062 158.007812 142.175781 Z M 224.152344 148.511719 C 222.351562 148.523438 221.457031 150.707031 222.753906 151.96875 C 231.804688 161.023438 237.40625 173.5 237.40625 187.316406 C 237.40625 201.136719 231.804688 213.625 222.753906 222.667969 C 221.398438 224.027344 219.960938 225.304688 218.457031 226.496094 L 218.40625 218.367188 C 218.40625 217.238281 217.480469 216.320312 216.339844 216.339844 C 215.230469 216.371094 214.351562 217.296875 214.371094 218.40625 L 214.472656 230.433594 C 214.472656 230.445312 214.472656 230.464844 214.472656 230.472656 C 214.472656 230.484375 214.472656 230.484375 214.472656 230.492188 C 214.472656 230.511719 214.472656 230.523438 214.472656 230.542969 C 214.492188 231.839844 215.710938 232.785156 216.96875 232.472656 L 228.402344 232.570312 C 229.523438 232.589844 230.4375 231.695312 230.449219 230.570312 C 230.457031 229.449219 229.554688 228.535156 228.441406 228.542969 L 222.390625 228.484375 C 223.503906 227.550781 224.574219 226.554688 225.609375 225.53125 C 235.378906 215.761719 241.429688 202.238281 241.429688 187.335938 C 241.429688 172.429688 235.378906 158.90625 225.609375 149.132812 C 225.222656 148.75 224.703125 148.53125 224.160156 148.53125 Z M 174.390625 163.097656 C 167.167969 163.097656 161.234375 169.296875 161.234375 177.140625 C 161.234375 188.007812 167.828125 196.617188 174.636719 202.601562 C 180.765625 207.976562 186.234375 210.703125 187.394531 211.273438 C 188.558594 210.703125 194.027344 207.976562 200.15625 202.59375 C 206.964844 196.617188 213.554688 188.007812 213.554688 177.140625 C 213.554688 169.355469 207.703125 163.1875 200.550781 163.097656 C 193.496094 163.1875 187.839844 168.886719 187.839844 175.949219 C 187.808594 178.609375 183.84375 178.609375 183.816406 175.949219 C 183.816406 173.558594 184.328125 171.277344 185.230469 169.210938 C 182.773438 165.382812 178.730469 163.109375 174.390625 163.097656 Z M 94.835938 228.113281 L 94.976562 267.96875 L 116.6875 268.058594 L 116.539062 228.191406 L 107.707031 228.152344 L 107.714844 232.046875 L 107.734375 237.382812 C 107.773438 238.523438 106.871094 239.476562 105.726562 239.476562 C 104.585938 239.476562 103.671875 238.542969 103.710938 237.402344 L 103.691406 232.058594 L 103.671875 228.140625 Z M 134.238281 229.183594 L 134.25 229.183594 C 134.171875 229.183594 134.082031 229.175781 134.003906 229.183594 C 133.855469 229.183594 133.707031 229.203125 133.5625 229.214844 C 133.296875 229.253906 133.03125 229.292969 132.753906 229.359375 L 124.125 231.65625 L 120.59375 232.589844 L 120.703125 262.929688 L 123.210938 262.273438 L 131.839844 259.976562 C 132.085938 259.910156 132.332031 259.859375 132.578125 259.8125 C 132.703125 259.773438 132.832031 259.753906 132.960938 259.730469 C 133.363281 259.671875 133.765625 259.652344 134.179688 259.652344 C 134.238281 259.652344 134.296875 259.652344 134.347656 259.652344 C 134.378906 259.652344 134.417969 259.652344 134.445312 259.652344 C 134.871094 259.652344 135.292969 259.683594 135.695312 259.742188 C 135.8125 259.761719 135.933594 259.78125 136.039062 259.820312 C 136.304688 259.871094 136.5625 259.917969 136.816406 259.988281 L 166.15625 267.929688 C 166.203125 267.949219 166.261719 267.960938 166.3125 267.980469 C 166.34375 267.988281 166.371094 268 166.390625 268.007812 C 166.402344 268.007812 166.410156 268.007812 166.421875 268.007812 C 167.386719 268.355469 168.457031 268.414062 169.449219 268.207031 C 185.773438 263.894531 202.085938 259.535156 218.40625 255.207031 C 218.476562 255.1875 218.554688 255.164062 218.625 255.15625 C 221.257812 254.753906 223.570312 252.351562 223.601562 249.714844 C 223.601562 249.675781 223.601562 249.636719 223.601562 249.59375 C 223.828125 246.296875 220.257812 243.089844 217.039062 243.710938 C 205.953125 246.5625 194.894531 249.585938 183.796875 252.5 C 183.714844 252.527344 183.636719 252.539062 183.558594 252.546875 C 181.207031 255.351562 177.351562 256.699219 173.59375 255.6875 L 152.707031 250 L 147.480469 248.570312 C 146.390625 248.296875 145.742188 247.183594 146.035156 246.09375 C 146.332031 245.007812 147.453125 244.378906 148.535156 244.695312 L 153.757812 246.113281 L 174.65625 251.800781 C 177.746094 252.644531 180.792969 250.886719 181.609375 247.785156 C 182.429688 244.683594 180.628906 241.574219 177.539062 240.738281 L 135.753906 229.359375 C 135.488281 229.292969 135.214844 229.242188 134.949219 229.214844 C 134.800781 229.195312 134.652344 229.175781 134.503906 229.164062 C 134.417969 229.15625 134.328125 229.15625 134.238281 229.15625 Z M 105.746094 243.394531 C 108.402344 243.414062 108.402344 247.390625 105.746094 247.421875 C 103.089844 247.390625 103.089844 243.414062 105.746094 243.394531 Z M 105.746094 243.394531 " fill-opacity="1" fill-rule="nonzero"></path>
    </g>
  </symbol>
  <symbol xmlns="http://www.w3.org/2000/svg" xmlns:xlink="http://www.w3.org/1999/xlink" zoomAndPan="magnify" preserveAspectRatio="xMidYMid meet" version="1.0" viewBox="0 0 375 374.999991" id="Respect">
    <defs>
      <clipPath id="id1">
        <path d="M 93.625 93.625 L 281.125 93.625 L 281.125 281.125 L 93.625 281.125 Z M 93.625 93.625 " clip-rule="nonzero"></path>
      </clipPath>
    </defs>
    <g clip-path="url(#id1)">
      <path fill="rgb(100%, 87.059021%, 34.899902%)" d="M 281.140625 187.382812 C 281.140625 239.160156 239.164062 281.140625 187.382812 281.140625 C 135.601562 281.140625 93.625 239.160156 93.625 187.382812 C 93.625 135.601562 135.601562 93.625 187.382812 93.625 C 239.164062 93.625 281.140625 135.601562 281.140625 187.382812 " fill-opacity="1" fill-rule="evenodd"></path>
    </g>
    <path fill="rgb(94.509888%, 94.898987%, 94.898987%)" d="M 134.070312 194.039062 L 134.140625 198.953125 L 148.375 200.167969 L 148.734375 200.410156 C 161.328125 209.542969 180.460938 223.375 181.570312 224.042969 C 182.023438 224.296875 185.09375 225.5 187.519531 225.5 C 188.265625 225.5 189.222656 225.378906 189.628906 224.84375 C 189.929688 224.441406 190.011719 223.75 189.878906 222.832031 L 180.027344 202.609375 L 191.027344 218.988281 L 192.210938 220.175781 C 192.253906 220.210938 195.738281 223.640625 199.078125 223.640625 C 200.082031 223.640625 200.933594 223.320312 201.726562 222.664062 L 202.160156 222.40625 C 202.589844 222.230469 203.789062 221.570312 204.167969 220.578125 C 204.382812 220.015625 204.296875 219.371094 203.914062 218.613281 L 203.957031 218.574219 L 194.214844 198.488281 L 206.84375 217.300781 C 207.53125 218.007812 209.34375 219.574219 211.800781 219.574219 C 212.597656 219.574219 213.429688 219.402344 214.25 219.066406 C 215.476562 218.480469 216.875 217.539062 217.109375 217.128906 C 217.3125 216.800781 217.339844 215.519531 217.207031 214.359375 L 217.164062 214.398438 L 207.097656 193.847656 L 219.671875 212.578125 L 222.703125 214.664062 C 223.332031 214.820312 225.027344 215.191406 226.339844 215.191406 C 226.738281 215.191406 226.992188 215.144531 227.125 215.117188 C 228.371094 214.832031 229.613281 213.449219 229.984375 212.769531 C 230.136719 212.292969 230.15625 209.726562 230.0625 207.609375 L 228.964844 203.960938 C 209.667969 179.113281 203.40625 155.855469 168.691406 170.1875 C 157.097656 173.550781 155.8125 165.804688 155.8125 165.804688 L 175.625 149.617188 C 159.078125 146.746094 158.140625 162.285156 134.070312 161.972656 L 134.070312 194.039062 " fill-opacity="1" fill-rule="evenodd"></path>
    <path fill="rgb(94.509888%, 94.898987%, 94.898987%)" d="M 161.316406 168.152344 C 169.113281 172.421875 190.820312 151.3125 210.234375 173.816406 C 217.152344 181.835938 232.722656 205.035156 232.722656 205.035156 C 232.722656 205.035156 240.113281 201.574219 240.664062 201.179688 L 241.210938 163.199219 C 241.210938 163.199219 238.769531 163.339844 233.183594 162.019531 C 206.558594 155.714844 192.753906 147.046875 179.742188 150.183594 C 174.261719 153.355469 168.863281 157.25 158.800781 165.953125 C 158.800781 165.953125 159.214844 167.003906 161.316406 168.152344 " fill-opacity="1" fill-rule="evenodd"></path>
    <path fill="rgb(94.509888%, 94.898987%, 94.898987%)" d="M 147.515625 201.804688 L 139.09375 201.46875 C 139.09375 201.46875 138.089844 205.066406 138.910156 207.335938 C 139.734375 209.601562 140.996094 209.894531 143.910156 209.921875 C 146.820312 209.953125 151.582031 204.816406 151.582031 204.816406 L 147.515625 201.804688 " fill-opacity="1" fill-rule="evenodd"></path>
    <path fill="rgb(94.509888%, 94.898987%, 94.898987%)" d="M 151.582031 204.816406 C 146.488281 215.007812 154.3125 222.960938 163.171875 213.808594 C 163.171875 213.808594 161.421875 217.5 162.074219 218.902344 C 164.398438 223.90625 169.234375 224 173.15625 220.804688 L 151.582031 204.816406 " fill-opacity="1" fill-rule="evenodd"></path>
    <path fill="rgb(94.509888%, 94.898987%, 94.898987%)" d="M 120.378906 195.632812 C 118.511719 195.632812 117 197.148438 117 199.015625 C 117 200.882812 118.511719 202.394531 120.378906 202.394531 C 122.246094 202.394531 123.761719 200.882812 123.761719 199.015625 C 123.761719 197.148438 122.246094 195.632812 120.378906 195.632812 Z M 111.027344 160.324219 L 130.84375 160.324219 L 130.84375 206.242188 L 111.027344 206.242188 L 111.027344 160.324219 " fill-opacity="1" fill-rule="evenodd"></path>
    <path fill="rgb(94.509888%, 94.898987%, 94.898987%)" d="M 253.824219 196.183594 C 251.960938 196.183594 250.449219 197.699219 250.449219 199.566406 C 250.449219 201.433594 251.960938 202.949219 253.824219 202.949219 C 255.695312 202.949219 257.210938 201.433594 257.210938 199.566406 C 257.210938 197.699219 255.695312 196.183594 253.824219 196.183594 Z M 243.921875 160.324219 L 263.738281 160.324219 L 263.738281 206.242188 L 243.921875 206.242188 L 243.921875 160.324219 " fill-opacity="1" fill-rule="evenodd"></path>
  </symbol>
  <symbol xmlns="http://www.w3.org/2000/svg" xmlns:xlink="http://www.w3.org/1999/xlink" zoomAndPan="magnify" preserveAspectRatio="xMidYMid meet" version="1.0" viewBox="0 0 375 374.999991" id="excellence">
    <defs>
      <clipPath id="id1">
        <path d="M 93.804688 93.804688 L 281.304688 93.804688 L 281.304688 281.304688 L 93.804688 281.304688 Z M 93.804688 93.804688 " clip-rule="nonzero"></path>
      </clipPath>
    </defs>
    <g clip-path="url(#id1)">
      <path fill="rgb(100%, 87.059021%, 34.899902%)" d="M 278.859375 114.003906 L 265.21875 114.003906 C 265.214844 112.902344 264.792969 111.800781 263.949219 110.957031 C 263.136719 110.144531 262.078125 109.730469 261.011719 109.699219 L 261.011719 96.160156 C 261.011719 95.285156 260.484375 94.496094 259.675781 94.160156 C 258.875 93.824219 257.9375 94.003906 257.316406 94.617188 L 242.601562 109.183594 C 242.1875 109.589844 241.953125 110.148438 241.957031 110.730469 L 241.992188 126.785156 L 235.273438 133.503906 C 220.257812 120.011719 200.417969 111.785156 178.691406 111.785156 C 131.953125 111.785156 93.929688 149.808594 93.929688 196.546875 C 93.929688 243.28125 131.953125 281.304688 178.691406 281.304688 C 225.425781 281.304688 263.449219 243.28125 263.449219 196.546875 C 263.449219 174.652344 255.105469 154.671875 241.433594 139.617188 L 248.144531 132.902344 L 264.1875 132.867188 C 264.757812 132.867188 265.304688 132.640625 265.710938 132.242188 L 280.382812 117.71875 C 281.007812 117.097656 281.199219 116.164062 280.863281 115.351562 C 280.53125 114.535156 279.738281 114.003906 278.859375 114.003906 Z M 248.265625 196.546875 C 248.265625 234.910156 217.054688 266.121094 178.691406 266.121094 C 140.324219 266.121094 109.113281 234.910156 109.113281 196.546875 C 109.113281 158.179688 140.324219 126.96875 178.691406 126.96875 C 196.234375 126.96875 212.269531 133.507812 224.519531 144.261719 L 211.460938 157.324219 C 202.578125 149.890625 191.148438 145.40625 178.691406 145.40625 C 150.492188 145.40625 127.550781 168.347656 127.550781 196.542969 C 127.550781 224.742188 150.492188 247.683594 178.691406 247.683594 C 206.886719 247.683594 229.828125 224.742188 229.828125 196.542969 C 229.828125 183.925781 225.222656 172.363281 217.617188 163.4375 L 230.675781 150.375 C 241.609375 162.667969 248.265625 178.839844 248.265625 196.546875 Z M 178.691406 216.230469 C 189.542969 216.230469 198.375 207.398438 198.375 196.546875 C 198.375 192.605469 197.199219 188.941406 195.199219 185.859375 L 208.375 172.683594 C 213.640625 179.222656 216.8125 187.515625 216.8125 196.546875 C 216.8125 217.566406 199.710938 234.667969 178.691406 234.667969 C 157.667969 234.667969 140.566406 217.566406 140.566406 196.546875 C 140.566406 175.523438 157.667969 158.421875 178.691406 158.421875 C 187.558594 158.421875 195.710938 161.492188 202.195312 166.59375 L 188.988281 179.800781 C 185.988281 177.949219 182.46875 176.859375 178.691406 176.859375 C 167.835938 176.859375 159.003906 185.691406 159.003906 196.546875 C 159.003906 207.398438 167.835938 216.230469 178.691406 216.230469 Z M 178.691406 216.230469 " fill-opacity="1" fill-rule="nonzero"></path>
    </g>
  </symbol>
  <symbol xmlns="http://www.w3.org/2000/svg" xmlns:xlink="http://www.w3.org/1999/xlink" zoomAndPan="magnify" preserveAspectRatio="xMidYMid meet" version="1.0" viewBox="0 0 375 374.999991" id="Performance">
    <defs>
      <clipPath id="id1">
        <path d="M 180 112.535156 L 277 112.535156 L 277 226 L 180 226 Z M 180 112.535156 " clip-rule="nonzero"></path>
      </clipPath>
    </defs>
    <g clip-path="url(#id1)">
      <path fill="rgb(100%, 87.059021%, 34.899902%)" d="M 256.042969 206.046875 C 248.664062 213.382812 238.957031 217.433594 228.703125 217.433594 C 228.691406 217.433594 228.691406 217.433594 228.691406 217.433594 L 228.34375 217.433594 C 206.828125 217.230469 189.417969 199.539062 189.507812 177.980469 C 189.609375 156.703125 207.140625 139.382812 228.601562 139.382812 L 228.824219 139.390625 C 239.3125 139.449219 249.097656 143.539062 256.367188 150.921875 C 263.636719 158.300781 267.605469 168.164062 267.558594 178.707031 C 267.515625 188.984375 263.433594 198.691406 256.042969 206.046875 Z M 275.488281 170.132812 C 271.585938 149.871094 257.128906 135.402344 236.820312 131.441406 C 232.695312 130.636719 232.457031 129.898438 232.851562 125.683594 L 232.949219 124.578125 L 234.082031 124.578125 C 234.796875 124.578125 235.511719 124.578125 236.203125 124.585938 C 236.886719 124.585938 237.570312 124.597656 238.230469 124.597656 C 239.203125 124.597656 239.984375 124.585938 240.734375 124.566406 C 242.847656 124.488281 243.84375 123.648438 244.066406 121.746094 C 244.3125 119.589844 244.324219 117.285156 244.101562 114.914062 C 244.019531 114.019531 243.585938 112.5 241.59375 112.5 C 236.898438 112.453125 232.617188 112.445312 228.523438 112.445312 C 223.972656 112.445312 219.746094 112.464844 215.605469 112.5 C 213.808594 112.523438 212.597656 113.796875 212.53125 115.742188 C 212.488281 116.972656 212.5 118.234375 212.507812 119.453125 L 212.507812 120.101562 C 212.53125 123.289062 213.796875 124.542969 217.039062 124.578125 C 218.648438 124.597656 220.269531 124.585938 221.859375 124.585938 C 222.574219 124.585938 223.289062 124.578125 223.992188 124.578125 L 225.113281 124.578125 L 225.210938 125.683594 C 225.625 129.796875 225.378906 130.582031 221.410156 131.195312 C 221.074219 131.242188 220.75 131.320312 220.394531 131.398438 C 220.101562 131.464844 219.8125 131.53125 219.507812 131.585938 C 207.398438 133.800781 196.339844 141.113281 189.195312 151.660156 C 181.949219 162.328125 179.320312 174.917969 181.769531 187.117188 C 186.355469 209.960938 205.597656 225.90625 228.566406 225.90625 C 231.957031 225.90625 235.386719 225.5625 238.765625 224.855469 C 263.421875 219.769531 280.242188 194.710938 275.488281 170.132812 " fill-opacity="1" fill-rule="nonzero"></path>
    </g>
    <path fill="rgb(100%, 87.059021%, 34.899902%)" d="M 208.304688 231.710938 C 208.105469 230.828125 208.125 229.921875 208.394531 229.082031 C 208.09375 228.972656 207.78125 228.90625 207.464844 228.792969 C 203.953125 227.484375 200.578125 225.828125 197.445312 223.863281 C 195.355469 222.554688 193.433594 221.089844 191.585938 219.554688 C 180.035156 235.625 157.78125 240.199219 140.773438 229.542969 C 123.085938 218.449219 117.714844 195.035156 128.820312 177.34375 C 138.851562 161.34375 158.96875 155.472656 175.808594 162.71875 C 176.042969 162.003906 176.246094 161.277344 176.511719 160.570312 C 179.847656 151.792969 185.515625 144.300781 192.875 138.585938 C 191.507812 137.570312 189.808594 136.753906 187.996094 135.824219 C 182.609375 133.097656 179.511719 135.210938 176.324219 139.257812 C 173.136719 143.261719 160.703125 144.703125 154.160156 141.75 C 153.140625 140.699219 150.917969 139.402344 150 137.46875 C 146.703125 130.625 141.960938 132.359375 136.527344 134.25 C 131 136.136719 130.015625 139.527344 130.675781 144.859375 C 131.707031 153.539062 119.539062 164.585938 110.425781 162.472656 C 104.945312 161.175781 102.765625 163.175781 100.964844 166.296875 L 98.335938 171.964844 C 97.140625 175.363281 97.039062 178.328125 101.589844 181.648438 C 109.117188 187.183594 108.660156 203.621094 101.367188 208.441406 C 96.894531 211.425781 94.9375 214.390625 97.085938 219.8125 C 99.1875 225.160156 100.941406 229.921875 108.300781 227.964844 C 110.371094 227.441406 112.796875 228.246094 114.273438 228.367188 C 120.757812 231.421875 127.726562 241.796875 126.753906 246.816406 C 125.757812 251.859375 126.160156 255.617188 131.707031 257.886719 C 136.894531 260.035156 140.820312 262.125 145.492188 256.097656 C 148.222656 252.597656 153.097656 250.855469 158.027344 250.789062 C 159.773438 250.730469 161.519531 250.910156 163.183594 251.269531 C 166.976562 252.097656 170.320312 253.917969 172.21875 256.679688 C 175.609375 261.691406 179.152344 262.519531 184.542969 260.347656 C 189.519531 258.335938 192.4375 256.34375 191.574219 249.859375 C 190.402344 240.78125 199.324219 231.53125 208.304688 231.710938 " fill-opacity="1" fill-rule="nonzero"></path>
    <path fill="rgb(100%, 87.059021%, 34.899902%)" d="M 228.578125 189.644531 C 225.222656 189.65625 222.328125 187.6875 221.199219 184.601562 C 220.035156 181.480469 220.929688 177.78125 223.660156 175.835938 C 225.066406 174.816406 225.402344 173.675781 225.449219 172.109375 C 225.558594 167.816406 225.78125 163.523438 225.984375 159.242188 C 226.019531 158.503906 226.097656 157.765625 226.207031 157.027344 C 226.421875 155.574219 227.058594 154.445312 228.734375 154.5 C 230.523438 154.566406 231.09375 155.839844 231.183594 157.375 C 231.375 160.851562 231.496094 164.328125 231.640625 167.804688 C 231.675781 168.769531 231.675781 169.730469 231.699219 170.691406 C 231.753906 172.90625 231.933594 174.792969 234.058594 176.449219 C 236.6875 178.484375 237.019531 181.625 235.835938 184.757812 C 234.671875 187.800781 231.910156 189.621094 228.578125 189.644531 " fill-opacity="1" fill-rule="nonzero"></path>
  </symbol>
</svg>