<?xml version="1.0" standalone="no"?>
<!DOCTYPE svg PUBLIC "-//W3C//DTD SVG 20010904//EN"
 "http://www.w3.org/TR/2001/REC-SVG-20010904/DTD/svg10.dtd">
<svg version="1.0" xmlns="http://www.w3.org/2000/svg"
 width="75.000000px" height="75.000000px" viewBox="0 0 500.000000 500.000000"
 preserveAspectRatio="xMidYMid meet">

<g transform="translate(0.000000,550.000000) scale(0.100000,-0.100000)"
fill="#fff

" stroke="none">
<path d="M2380 4204 c-225 -25 -389 -64 -537 -127 -596 -252 -997 -808 -1042
-1447 -32 -454 100 -872 390 -1226 111 -137 299 -294 455 -383 l77 -44 18 24
c10 14 56 72 103 129 47 58 86 108 86 112 0 5 -13 8 -30 8 -29 0 -30 2 -30 43
1 34 6 46 27 61 23 17 26 17 20 3 -4 -11 -1 -17 8 -17 8 0 15 -4 15 -10 0 -5
-11 -10 -25 -10 -14 0 -25 -4 -25 -10 0 -5 12 -10 26 -10 30 0 22 -19 -9 -21
-17 -1 -15 -3 8 -8 22 -6 35 -3 51 11 18 16 25 17 48 7 34 -16 34 -33 -1 -24
-21 5 -25 4 -17 -5 16 -17 58 -8 62 12 2 12 -5 19 -22 24 -35 8 -34 28 2 20
l27 -6 -21 18 -22 18 35 43 c26 31 33 45 25 53 -8 8 -15 8 -27 -2 -24 -20 -29
-5 -14 37 14 37 49 59 49 31 0 -8 6 -22 13 -32 12 -16 18 -10 70 55 46 59 54
74 43 83 -8 6 -24 52 -37 101 l-24 90 -3 -97 -3 -98 -35 0 -34 0 2 198 3 197
32 3 c38 4 43 -4 69 -108 l19 -75 5 90 5 90 30 0 30 0 5 -168 5 -169 104 128
c57 70 403 494 768 942 365 447 667 820 670 827 7 21 -227 249 -332 323 -219
155 -463 255 -720 297 -91 15 -331 27 -395 19z m335 -674 c94 -29 208 -65 255
-79 47 -14 90 -29 96 -33 19 -12 26 -173 15 -295 -37 -380 -189 -637 -458
-772 -120 -61 -122 -61 -240 -1 -173 86 -311 237 -383 420 -12 30 -33 102 -48
160 -23 94 -26 124 -26 295 l-1 190 55 18 c259 87 500 156 530 153 19 -1 112
-27 205 -56z m-1456 -1542 c5 -13 12 -68 17 -123 l8 -100 8 55 c4 30 11 84 15
120 8 65 8 65 42 68 l34 3 -7 -68 c-8 -77 -34 -276 -42 -310 -4 -20 -11 -23
-54 -23 -28 0 -50 4 -50 9 0 5 -11 86 -25 181 -32 222 -33 210 10 210 28 0 37
-5 44 -22z m229 -180 l2 -198 -40 0 -40 0 0 193 c0 107 3 197 7 201 4 4 21 6
38 4 l30 -3 3 -197z m198 177 c20 -20 25 -33 22 -68 -3 -39 -5 -42 -35 -45
-31 -3 -33 -1 -33 26 0 29 -21 58 -33 45 -16 -15 -6 -64 16 -82 12 -10 35 -30
52 -44 26 -22 30 -32 33 -95 5 -90 -12 -112 -90 -112 -70 0 -88 17 -88 87 l0
53 35 0 c33 0 35 -2 35 -34 0 -38 17 -57 31 -35 5 8 9 24 9 37 0 22 -9 33 -78
95 -30 27 -32 33 -32 97 0 60 3 71 22 84 36 26 104 21 134 -9z m134 -175 l0
-200 -35 0 -35 0 0 200 0 200 35 0 35 0 0 -200z m207 174 c16 -22 19 -315 3
-344 -15 -29 -73 -44 -115 -30 -19 6 -40 20 -45 30 -6 10 -10 88 -10 174 l0
155 28 21 c22 18 36 21 76 17 32 -3 54 -11 63 -23z m-347 -499 c0 -31 3 -35
25 -35 14 0 25 -4 25 -10 0 -5 -16 -10 -35 -10 -35 0 -35 0 -35 45 0 25 5 45
10 45 6 0 10 -16 10 -35z m159 13 c22 -59 23 -68 7 -68 -9 0 -16 5 -16 10 0 6
-7 10 -15 10 -8 0 -15 -4 -15 -10 0 -5 -7 -10 -16 -10 -11 0 -14 6 -8 23 16
53 24 67 39 67 9 0 19 -10 24 -22z m91 3 c0 -30 17 -34 24 -6 4 14 14 25 22
25 11 0 14 -5 9 -17 -4 -10 -12 -30 -17 -45 -14 -38 -35 -35 -53 8 -19 46 -19
54 0 54 8 0 15 -9 15 -19z m-123 -173 c11 -18 10 -78 -1 -78 -5 0 -18 7 -28
17 -17 15 -18 15 -18 0 0 -10 -4 -17 -10 -17 -5 0 -10 20 -10 45 0 43 1 45 29
45 17 0 33 -6 38 -12z"/>
<path d="M2467 3258 c-83 -149 -195 -386 -202 -426 -15 -91 37 -189 124 -234
123 -65 270 -17 327 106 44 95 38 127 -75 353 -54 109 -107 213 -118 231 l-21
33 -35 -63z m14 -252 c-71 -141 -81 -168 -81 -214 0 -29 6 -65 14 -80 15 -29
58 -71 91 -91 17 -10 12 -11 -29 -8 -67 7 -124 48 -159 117 -43 83 -36 111 84
351 l101 204 30 -59 29 -58 -80 -162z"/>
<path d="M1930 1810 c0 -123 1 -130 20 -130 19 0 20 7 20 130 0 123 -1 130
-20 130 -19 0 -20 -7 -20 -130z"/>
<path d="M1760 1310 c0 -5 7 -10 15 -10 8 0 15 5 15 10 0 6 -7 10 -15 10 -8 0
-15 -4 -15 -10z"/>
<path d="M2640 2002 c-41 -6 -60 -30 -60 -79 0 -41 1 -43 29 -43 25 0 30 4 33
28 2 19 9 27 23 27 17 0 20 -7 20 -40 0 -34 -3 -40 -22 -43 -18 -3 -23 -10
-23 -33 0 -19 6 -32 18 -36 23 -9 32 -23 32 -55 0 -36 -9 -58 -25 -58 -15 0
-25 22 -25 56 0 20 -5 24 -30 24 -30 0 -30 -1 -30 -54 0 -65 21 -86 85 -86 22
0 51 7 63 16 19 13 22 24 22 93 0 42 -5 82 -11 88 -8 8 -8 13 0 17 13 8 15
135 2 154 -10 16 -66 29 -101 24z"/>
<path d="M2805 1953 c8 -27 21 -70 29 -96 14 -45 13 -54 -10 -132 -13 -46 -27
-91 -30 -100 -6 -14 -1 -16 31 -13 36 3 38 5 55 58 l17 55 13 -57 13 -58 40 0
c27 0 38 4 34 13 -2 6 -17 50 -32 98 l-28 85 30 97 31 97 -38 0 c-36 0 -39 -2
-45 -38 -10 -62 -22 -71 -34 -26 -6 21 -11 45 -11 52 0 7 -15 12 -39 12 l-40
0 14 -47z"/>
<path d="M3030 1805 l0 -195 35 0 35 0 0 69 0 68 39 7 c62 10 71 25 71 122 0
111 -11 124 -110 124 l-70 0 0 -195z m110 70 c0 -58 -2 -65 -20 -65 -18 0 -20
7 -20 65 0 58 2 65 20 65 18 0 20 -7 20 -65z"/>
<path d="M3250 1805 l0 -195 70 0 70 0 0 34 c0 32 -3 35 -32 38 -32 3 -33 5
-36 51 l-3 47 35 0 c34 0 36 2 36 35 0 33 -2 35 -35 35 -34 0 -35 1 -35 40 0
39 1 40 35 40 33 0 35 2 35 35 l0 35 -70 0 -70 0 0 -195z"/>
<path d="M3440 1805 l0 -195 30 0 29 0 3 73 c2 56 6 72 18 72 8 0 16 -7 17
-15 1 -8 5 -41 8 -72 l6 -58 35 0 34 0 -6 48 c-3 26 -10 64 -16 86 -6 26 -6
42 1 49 6 6 11 48 11 93 0 102 -11 114 -107 114 l-63 0 0 -195z m98 73 c-2
-48 -7 -63 -18 -63 -11 0 -16 15 -18 63 -3 57 -1 62 18 62 19 0 21 -5 18 -62z"/>
<path d="M3650 1971 c0 -23 5 -30 23 -33 22 -3 22 -6 25 -165 l2 -163 35 0 35
0 0 165 0 165 25 0 c21 0 25 5 25 30 l0 30 -85 0 -85 0 0 -29z"/>
<path d="M2172 1508 c-30 -30 -3 -82 40 -76 28 4 38 38 11 38 -14 0 -15 -2 -5
-9 11 -7 10 -10 -3 -15 -24 -9 -35 1 -35 31 0 23 3 25 31 19 27 -5 30 -4 19 9
-15 18 -42 19 -58 3z"/>
<path d="M2307 1513 c-4 -3 -7 -24 -7 -45 0 -38 0 -38 38 -37 30 2 32 3 10 6
-34 5 -37 30 -5 36 l22 4 -22 2 c-31 2 -29 21 2 21 14 0 25 5 25 10 0 11 -53
14 -63 3z"/>
<path d="M2500 1475 c0 -40 2 -45 23 -45 29 0 47 18 47 47 0 23 -26 43 -54 43
-12 0 -16 -11 -16 -45z m50 1 c0 -23 -22 -41 -34 -29 -3 4 -6 17 -6 30 0 16 6
23 20 23 14 0 20 -7 20 -24z"/>
<path d="M2630 1475 l0 -45 38 1 c35 1 36 2 8 8 -35 7 -37 23 -4 33 22 6 21 6
-4 7 -35 1 -37 21 -3 21 14 0 25 5 25 10 0 6 -13 10 -30 10 -29 0 -30 -2 -30
-45z"/>
<path d="M2820 1510 c0 -20 29 -80 39 -80 10 0 31 54 30 79 0 9 -8 -2 -18 -24
l-18 -40 -7 32 c-7 32 -26 56 -26 33z"/>
<path d="M2950 1476 c0 -25 5 -46 10 -46 6 0 10 18 10 39 0 22 -4 43 -10 46
-6 4 -10 -12 -10 -39z"/>
<path d="M3020 1510 c0 -5 5 -10 10 -10 6 0 10 -16 10 -35 0 -19 5 -35 10 -35
6 0 10 16 10 35 0 24 5 35 15 35 8 0 15 5 15 10 0 6 -16 10 -35 10 -19 0 -35
-4 -35 -10z"/>
<path d="M3141 1473 c1 -27 3 -40 6 -30 5 21 31 23 39 2 11 -27 20 -16 20 23
0 40 -9 52 -43 52 -21 0 -23 -5 -22 -47z m49 17 c0 -5 -9 -10 -20 -10 -11 0
-20 5 -20 10 0 6 9 10 20 10 11 0 20 -4 20 -10z"/>
<path d="M3270 1475 l0 -45 38 1 c35 1 36 2 8 8 -35 7 -37 23 -4 33 23 6 23 6
1 7 -31 1 -39 21 -9 21 14 0 26 5 26 10 0 6 -13 10 -30 10 -29 0 -30 -2 -30
-45z"/>
<path d="M2197 1334 c-4 -4 -7 -25 -7 -46 0 -35 2 -38 30 -38 36 0 56 30 40
60 -6 11 -15 20 -20 20 -4 0 -15 2 -22 5 -8 3 -17 2 -21 -1z m50 -34 c4 -23
-13 -44 -31 -37 -9 4 -16 18 -16 32 0 22 4 26 22 23 13 -2 24 -10 25 -18z"/>
<path d="M2327 1333 c-4 -3 -7 -24 -7 -45 0 -38 0 -38 38 -37 30 2 32 3 10 6
-32 5 -38 23 -8 23 11 0 20 5 20 10 0 6 -9 10 -20 10 -11 0 -20 5 -20 10 0 6
12 10 26 10 14 0 23 4 19 10 -7 11 -48 14 -58 3z"/>
<path d="M2447 1333 c-11 -10 -8 -83 2 -83 5 0 11 12 13 28 l4 27 14 -27 c20
-42 40 -36 40 12 0 22 -4 40 -10 40 -5 0 -10 -12 -10 -27 l0 -28 -20 33 c-21
34 -23 36 -33 25z"/>
<path d="M2570 1330 c0 -5 5 -10 10 -10 6 0 10 -16 10 -35 0 -19 5 -35 10 -35
6 0 10 16 10 35 0 25 4 35 16 35 8 0 12 5 9 10 -3 6 -19 10 -36 10 -16 0 -29
-4 -29 -10z"/>
<path d="M2767 1333 c-4 -3 -7 -24 -7 -45 0 -38 0 -38 38 -37 30 2 32 3 10 6
-32 5 -38 23 -8 23 11 0 20 5 20 10 0 6 -9 10 -20 10 -11 0 -20 5 -20 10 0 6
12 10 26 10 14 0 23 4 19 10 -7 11 -48 14 -58 3z"/>
<path d="M2890 1298 c0 -48 0 -48 33 -47 23 1 26 3 10 6 -17 3 -23 11 -23 31
0 15 -5 34 -10 42 -7 11 -10 2 -10 -32z"/>
<path d="M3080 1295 c0 -44 0 -45 33 -44 21 1 25 3 12 6 -31 7 -42 23 -18 23
12 0 25 5 28 10 4 6 -5 10 -19 10 -14 0 -26 5 -26 10 0 6 11 10 25 10 14 0 25
5 25 10 0 6 -13 10 -30 10 -29 0 -30 -2 -30 -45z"/>
<path d="M3195 1330 c-3 -5 1 -10 9 -10 12 0 16 -10 16 -35 0 -19 5 -35 10
-35 6 0 10 16 10 35 0 25 4 35 16 35 8 0 12 5 9 10 -3 6 -19 10 -35 10 -16 0
-32 -4 -35 -10z"/>
<path d="M2123 1290 c0 -25 2 -35 4 -22 2 12 2 32 0 45 -2 12 -4 2 -4 -23z"/>
<path d="M2690 1290 c0 -22 5 -40 10 -40 6 0 10 18 10 40 0 22 -4 40 -10 40
-5 0 -10 -18 -10 -40z"/>
<path d="M1907 1153 c-12 -12 -7 -60 8 -73 8 -6 23 -9 35 -5 28 9 25 23 -4 18
-28 -6 -40 9 -31 38 5 16 12 19 32 14 16 -4 22 -2 18 5 -7 11 -48 14 -58 3z"/>
<path d="M2030 1141 c-20 -39 22 -82 60 -61 22 12 27 49 8 68 -18 18 -56 14
-68 -7z m58 -24 c3 -21 -1 -27 -16 -27 -22 0 -34 22 -25 45 9 25 38 13 41 -18z"/>
<path d="M2171 1118 c1 -35 2 -38 8 -18 l7 25 8 -22 c4 -13 11 -23 16 -23 4 0
11 10 15 23 7 21 8 21 15 -8 7 -27 8 -25 9 18 1 52 -14 62 -30 20 l-11 -28
-10 28 c-14 40 -28 33 -27 -15z"/>
<path d="M2311 1113 c1 -40 2 -43 8 -19 l6 30 14 -30 14 -29 10 30 11 30 7
-25 c6 -20 7 -17 8 18 1 48 -13 55 -27 15 l-10 -28 -11 28 c-16 42 -31 32 -30
-20z"/>
<path d="M2452 1118 c3 -40 5 -43 36 -46 18 -2 32 1 32 7 0 6 -11 11 -25 11
-14 0 -25 5 -25 10 0 6 9 10 20 10 11 0 20 5 20 10 0 6 -9 10 -20 10 -30 0
-24 18 8 23 21 3 19 4 -11 6 l-38 1 3 -42z"/>
<path d="M2580 1115 c0 -28 4 -44 10 -40 6 3 10 13 10 21 0 20 9 18 29 -7 17
-21 17 -21 17 22 -1 42 -2 44 -33 47 -33 3 -33 3 -33 -43z m50 20 c0 -8 -7
-15 -15 -15 -8 0 -15 7 -15 15 0 8 7 15 15 15 8 0 15 -7 15 -15z"/>
<path d="M2717 1153 c-4 -3 -7 -19 -7 -34 0 -31 28 -53 54 -43 25 9 19 22 -8
17 -25 -5 -40 16 -29 43 4 11 13 14 30 9 16 -4 22 -2 18 5 -7 11 -48 14 -58 3z"/>
<path d="M2843 1115 c0 -27 2 -38 4 -22 2 15 2 37 0 50 -2 12 -4 0 -4 -28z"/>
<path d="M2925 1126 c-19 -46 -19 -67 1 -41 12 16 18 18 34 7 29 -18 30 -16
16 25 -17 49 -33 52 -51 9z m35 -7 c0 -5 -4 -9 -10 -9 -5 0 -10 7 -10 16 0 8
5 12 10 9 6 -3 10 -10 10 -16z"/>
<path d="M3042 1118 c3 -39 6 -43 31 -46 15 -2 27 1 27 7 0 6 -9 11 -20 11
-16 0 -20 7 -20 35 0 19 -5 35 -11 35 -6 0 -9 -17 -7 -42z"/>
</g>
</svg>
